<svg width="118" height="86" viewBox="0 0 118 86" fill="none" xmlns="http://www.w3.org/2000/svg">
<g id="Group">
<g id="Group_2">
<path id="Vector" d="M88.0204 24.4014V65.3517C88.0204 68.107 85.6158 70.3813 82.4824 70.7797C82.1472 70.8458 81.8121 70.8626 81.4772 70.8626H51.6191L29.8215 85.0548L30.2552 70.8626H7.19635C6.84152 70.8626 6.50662 70.846 6.17149 70.7797C3.39262 70.431 1.20498 68.5719 0.771352 66.2315C0.692552 65.949 0.672852 65.6503 0.672852 65.3517V24.4014C0.672852 21.3638 3.58962 18.9072 7.19635 18.9072H81.4774C85.0839 18.907 88.0204 21.3637 88.0204 24.4014Z" fill="#3D3D3D" fill-opacity="0.8"/>
<path id="Vector_2" d="M117.958 5.41139V57.3504C117.958 60.3384 115.08 62.7618 111.533 62.7618H18.8638C15.3164 62.7618 12.4585 60.3384 12.4585 57.3504V5.41139C12.4585 2.42363 15.3164 0 18.8638 0H111.533C112.065 0 112.577 0.0497768 113.07 0.166116C115.376 0.630892 117.209 2.17455 117.761 4.11662C117.899 4.53162 117.958 4.96321 117.958 5.41139Z" fill="#FFC700" fill-opacity="0.8"/>
<path id="Vector_3" d="M117.958 6.6562V56.122C117.958 57.6823 117.327 59.1266 116.243 60.2552C116.046 60.4709 115.829 60.6702 115.593 60.8693C115.415 61.0186 115.218 61.1516 115.021 61.2843C114.804 61.4502 114.568 61.5832 114.311 61.7159C114.154 61.8155 113.957 61.8984 113.779 61.9816C114.252 61.4668 114.627 60.8859 114.903 60.2552C115.218 59.5416 115.395 58.7615 115.395 57.9479V8.48232C115.395 4.81388 111.848 1.84271 107.492 1.84271H17.7798C16.4397 1.84271 15.1979 2.10818 14.0942 2.60614C15.533 1.0293 17.7995 0 20.3419 0H110.074C111.434 0 112.715 0.298854 113.839 0.813407C115.179 1.42771 116.282 2.35726 117.012 3.48611C117.603 4.43207 117.958 5.51114 117.958 6.6562Z" fill="#FFC700" fill-opacity="0.8"/>
<path id="Vector_4" d="M47.6592 57.0583H82.0522L82.7541 79.909L47.6592 57.0583Z" fill="#FFC700" fill-opacity="0.8"/>
<path id="Vector_5" opacity="0.06" d="M116.245 60.2542C114.8 61.7851 112.568 62.7665 110.069 62.7665H82.2265L82.7529 79.9092L56.4264 62.7665H20.3442C17.8455 62.7665 15.6136 61.7853 14.168 60.2542H55.2474L81.3492 77.2491L80.8299 60.2542H116.245Z" fill="#040000" fill-opacity="0.8"/>
<g id="Group_3">
<path id="Vector_6" d="M95.3863 12.3223H33.623V17.938H95.3863V12.3223Z" fill="#3B372C" fill-opacity="0.8"/>
<path id="Vector_7" d="M101.703 27.7888H33.623V33.4045H101.703V27.7888Z" fill="#3B372C" fill-opacity="0.8"/>
<path id="Vector_8" d="M70.7336 43.1582H33.623V48.7739H70.7336V43.1582Z" fill="#3B372C" fill-opacity="0.8"/>
</g>
</g>
</g>
</svg>
