<svg width="250" height="250" viewBox="0 0 250 250" fill="none" xmlns="http://www.w3.org/2000/svg">
<path d="M248.01 167.925H1.99121C1.73477 167.925 1.48081 167.875 1.24385 167.777C1.00689 167.679 0.791583 167.535 0.610232 167.353C0.428881 167.172 0.285048 166.957 0.186958 166.72C0.0888684 166.483 0.038446 166.229 0.0385745 165.973C0.0384461 165.716 0.0888649 165.462 0.186949 165.225C0.285032 164.988 0.428858 164.773 0.610202 164.592C0.791547 164.41 1.00685 164.266 1.24382 164.168C1.48078 164.07 1.73475 164.02 1.99121 164.02H248.01C248.266 164.02 248.52 164.07 248.757 164.168C248.994 164.266 249.209 164.41 249.391 164.592C249.572 164.773 249.716 164.988 249.814 165.225C249.912 165.462 249.962 165.716 249.962 165.973C249.962 166.229 249.912 166.483 249.814 166.72C249.715 166.957 249.572 167.172 249.39 167.353C249.209 167.535 248.994 167.678 248.757 167.776C248.52 167.875 248.266 167.925 248.01 167.925ZM125 187.443C120.694 187.443 117.19 183.942 117.19 179.633C117.19 175.324 120.694 171.823 125 171.823C129.306 171.823 132.811 175.324 132.811 179.633C132.811 183.942 129.306 187.443 125 187.443ZM125 175.728C122.845 175.728 121.095 177.482 121.095 179.633C121.095 181.784 122.845 183.538 125 183.538C127.154 183.538 128.905 181.784 128.905 179.633C128.905 177.482 127.154 175.728 125 175.728ZM91.8301 238.216C91.5379 238.215 91.2495 238.149 90.9861 238.023C90.7228 237.896 90.4911 237.712 90.3082 237.484C90.1253 237.257 89.9958 236.991 89.9292 236.706C89.8626 236.422 89.8606 236.126 89.9233 235.84L97.7334 200.695C97.9663 199.646 99.0034 198.99 100.063 199.211C100.569 199.324 101.009 199.633 101.287 200.069C101.565 200.506 101.659 201.035 101.547 201.541L93.7373 236.687C93.6407 237.12 93.3991 237.508 93.0524 237.786C92.7056 238.064 92.2745 238.216 91.8301 238.216ZM158.17 238.216C157.726 238.216 157.295 238.064 156.948 237.786C156.601 237.508 156.36 237.12 156.264 236.687L148.454 201.541C148.342 201.035 148.436 200.506 148.714 200.069C148.992 199.633 149.432 199.324 149.937 199.211C151.005 198.99 152.034 199.646 152.267 200.695L160.077 235.84C160.14 236.126 160.138 236.422 160.071 236.706C160.005 236.991 159.875 237.257 159.692 237.485C159.509 237.713 159.278 237.897 159.014 238.023C158.751 238.15 158.462 238.216 158.17 238.216Z" fill="white"/>
<path d="M164.051 238.216H85.9497C85.6932 238.216 85.4392 238.166 85.2022 238.068C84.9653 237.97 84.7499 237.826 84.5686 237.644C84.3872 237.463 84.2434 237.248 84.1453 237.011C84.0473 236.774 83.9969 236.52 83.9971 236.263C83.9969 236.007 84.0474 235.753 84.1455 235.516C84.2436 235.279 84.3874 235.064 84.5687 234.882C84.7501 234.701 84.9654 234.557 85.2024 234.459C85.4393 234.361 85.6933 234.311 85.9497 234.311H164.051C164.308 234.311 164.562 234.361 164.799 234.459C165.035 234.557 165.251 234.701 165.432 234.883C165.613 235.064 165.757 235.279 165.855 235.516C165.953 235.753 166.004 236.007 166.003 236.263C166.004 236.52 165.953 236.774 165.855 237.011C165.757 237.247 165.613 237.463 165.432 237.644C165.251 237.826 165.036 237.969 164.799 238.067C164.562 238.166 164.308 238.216 164.051 238.216ZM236.294 156.271H13.7061C13.4496 156.271 13.1956 156.221 12.9587 156.123C12.7217 156.025 12.5064 155.881 12.325 155.699C12.1437 155.518 11.9999 155.303 11.9018 155.066C11.8037 154.829 11.7533 154.575 11.7534 154.318V25.4517C11.7533 25.1952 11.8037 24.9412 11.9018 24.7043C11.9999 24.4673 12.1437 24.252 12.325 24.0707C12.5064 23.8893 12.7217 23.7455 12.9587 23.6474C13.1956 23.5493 13.4496 23.4989 13.7061 23.499H236.294C237.374 23.499 238.247 24.3726 238.247 25.4517V154.318C238.247 154.575 238.197 154.829 238.099 155.066C238.001 155.303 237.857 155.518 237.675 155.7C237.494 155.881 237.279 156.025 237.042 156.123C236.804 156.221 236.55 156.271 236.294 156.271ZM15.6587 152.366H234.342V27.4043H15.6587V152.366Z" fill="white"/>
<path d="M236.294 195.322H13.7061C6.17041 195.322 0.0385742 189.189 0.0385742 181.654V25.4517C0.0385742 17.916 6.1709 11.7842 13.7061 11.7842H236.294C243.83 11.7842 249.962 17.9165 249.962 25.4517V181.654C249.962 189.189 243.83 195.322 236.294 195.322ZM13.7061 15.689C8.32129 15.689 3.94336 20.0688 3.94336 25.4517V181.654C3.94336 187.038 8.32129 191.416 13.7061 191.416H236.294C241.679 191.416 246.057 187.038 246.057 181.654V25.4517C246.057 20.0688 241.679 15.689 236.294 15.689H13.7061Z" fill="white"/>
<path d="M236.294 203.071H13.7061C6.04102 203.071 0.0385745 197.068 0.0385745 189.403V181.593C0.0384461 181.337 0.0888649 181.083 0.186949 180.846C0.285032 180.609 0.428858 180.394 0.610202 180.212C0.791547 180.031 1.00685 179.887 1.24382 179.789C1.48078 179.691 1.73475 179.64 1.99121 179.641C2.24767 179.64 2.50164 179.691 2.7386 179.789C2.97557 179.887 3.19088 180.031 3.37222 180.212C3.55356 180.394 3.69739 180.609 3.79547 180.846C3.89356 181.083 3.94398 181.337 3.94385 181.593V189.403C3.94385 194.879 8.23047 199.166 13.7065 199.166H236.294C241.771 199.166 246.057 194.879 246.057 189.403V181.654C246.057 181.398 246.107 181.144 246.206 180.907C246.304 180.67 246.448 180.454 246.629 180.273C246.81 180.092 247.026 179.948 247.263 179.85C247.5 179.752 247.754 179.701 248.01 179.702C248.267 179.702 248.521 179.752 248.758 179.85C248.995 179.948 249.21 180.092 249.391 180.273C249.572 180.455 249.716 180.67 249.814 180.907C249.912 181.144 249.963 181.398 249.962 181.654V189.403C249.962 197.068 243.959 203.071 236.294 203.071ZM21.5161 156.271C21.2597 156.271 21.0057 156.221 20.7687 156.123C20.5318 156.025 20.3165 155.881 20.1351 155.699C19.9538 155.518 19.8099 155.303 19.7119 155.066C19.6138 154.829 19.5634 154.575 19.5635 154.318V25.4517C19.5634 25.1952 19.6138 24.9412 19.7119 24.7043C19.8099 24.4673 19.9538 24.252 20.1351 24.0707C20.3165 23.8893 20.5318 23.7455 20.7687 23.6474C21.0057 23.5493 21.2597 23.4989 21.5161 23.499C21.7726 23.4989 22.0265 23.5493 22.2635 23.6474C22.5005 23.7455 22.7158 23.8893 22.8971 24.0707C23.0785 24.252 23.2223 24.4673 23.3204 24.7043C23.4185 24.9412 23.4689 25.1952 23.4688 25.4517V154.318C23.4689 154.575 23.4185 154.829 23.3204 155.066C23.2223 155.303 23.0785 155.518 22.8971 155.699C22.7158 155.881 22.5005 156.025 22.2635 156.123C22.0265 156.221 21.7726 156.271 21.5161 156.271Z" fill="white"/>
<path d="M17.6113 39.1191H13.7061C12.627 39.1191 11.7534 38.2461 11.7534 37.1665C11.7534 36.0869 12.627 35.2139 13.7061 35.2139H17.6113C18.6904 35.2139 19.564 36.0869 19.564 37.1665C19.564 38.2461 18.6904 39.1191 17.6113 39.1191ZM17.6113 50.8345H13.7061C12.627 50.8345 11.7534 49.9609 11.7534 48.8818C11.7534 47.8027 12.627 46.9292 13.7061 46.9292H17.6113C18.6904 46.9292 19.564 47.8027 19.564 48.8818C19.564 49.9609 18.6904 50.8345 17.6113 50.8345ZM17.6113 62.5498H13.7061C12.627 62.5498 11.7534 61.6768 11.7534 60.5972C11.7534 59.5176 12.627 58.6445 13.7061 58.6445H17.6113C18.6904 58.6445 19.564 59.5176 19.564 60.5972C19.564 61.6768 18.6904 62.5498 17.6113 62.5498ZM17.6113 74.2651H13.7061C12.627 74.2651 11.7534 73.3916 11.7534 72.3125C11.7534 71.2334 12.627 70.3599 13.7061 70.3599H17.6113C18.6904 70.3599 19.564 71.2334 19.564 72.3125C19.564 73.3916 18.6904 74.2651 17.6113 74.2651ZM17.6113 85.98H13.7061C12.627 85.98 11.7534 85.1069 11.7534 84.0273C11.7534 82.9478 12.627 82.0747 13.7061 82.0747H17.6113C18.6904 82.0747 19.564 82.9478 19.564 84.0273C19.564 85.1069 18.6904 85.98 17.6113 85.98ZM17.6113 97.6953H13.7061C13.4496 97.6954 13.1956 97.645 12.9587 97.5469C12.7217 97.4489 12.5064 97.305 12.325 97.1237C12.1437 96.9423 11.9999 96.727 11.9018 96.4901C11.8037 96.2531 11.7533 95.9991 11.7534 95.7427C11.7533 95.4862 11.8037 95.2322 11.9018 94.9953C11.9999 94.7583 12.1437 94.543 12.325 94.3617C12.5064 94.1803 12.7217 94.0365 12.9587 93.9384C13.1956 93.8403 13.4496 93.7899 13.7061 93.79H17.6113C17.8678 93.7899 18.1218 93.8403 18.3587 93.9384C18.5957 94.0365 18.811 94.1803 18.9923 94.3617C19.1737 94.543 19.3175 94.7583 19.4156 94.9953C19.5137 95.2322 19.5641 95.4862 19.564 95.7427C19.564 95.9991 19.5136 96.2531 19.4155 96.49C19.3174 96.7269 19.1735 96.9422 18.9922 97.1235C18.8109 97.3049 18.5956 97.4487 18.3586 97.5468C18.1217 97.6449 17.8678 97.6954 17.6113 97.6953ZM17.6113 109.41H13.7061C13.4496 109.41 13.1956 109.36 12.9587 109.262C12.7217 109.164 12.5064 109.02 12.325 108.839C12.1437 108.657 11.9999 108.442 11.9018 108.205C11.8037 107.968 11.7533 107.714 11.7534 107.458C11.7533 107.201 11.8037 106.947 11.9018 106.71C11.9999 106.473 12.1437 106.258 12.325 106.077C12.5064 105.895 12.7217 105.751 12.9587 105.653C13.1956 105.555 13.4496 105.505 13.7061 105.505H17.6113C17.8678 105.505 18.1218 105.555 18.3587 105.653C18.5957 105.751 18.811 105.895 18.9923 106.077C19.1737 106.258 19.3175 106.473 19.4156 106.71C19.5137 106.947 19.5641 107.201 19.564 107.458C19.5641 107.714 19.5137 107.968 19.4156 108.205C19.3175 108.442 19.1737 108.657 18.9923 108.839C18.811 109.02 18.5957 109.164 18.3587 109.262C18.1218 109.36 17.8678 109.41 17.6113 109.41ZM17.6113 121.125H13.7061C13.4496 121.126 13.1956 121.075 12.9587 120.977C12.7217 120.879 12.5064 120.735 12.325 120.554C12.1437 120.373 11.9999 120.157 11.9018 119.92C11.8037 119.683 11.7533 119.429 11.7534 119.173C11.7533 118.916 11.8037 118.662 11.9018 118.425C11.9999 118.188 12.1437 117.973 12.325 117.792C12.5064 117.61 12.7217 117.467 12.9587 117.369C13.1956 117.271 13.4496 117.22 13.7061 117.22H17.6113C17.8678 117.22 18.1218 117.271 18.3587 117.369C18.5957 117.467 18.811 117.61 18.9923 117.792C19.1737 117.973 19.3175 118.188 19.4156 118.425C19.5137 118.662 19.5641 118.916 19.564 119.173C19.564 119.429 19.5136 119.683 19.4155 119.92C19.3174 120.157 19.1735 120.372 18.9922 120.554C18.8109 120.735 18.5956 120.879 18.3586 120.977C18.1217 121.075 17.8678 121.126 17.6113 121.125ZM17.6113 132.841H13.7061C13.4496 132.841 13.1956 132.791 12.9587 132.692C12.7217 132.594 12.5064 132.451 12.325 132.269C12.1437 132.088 11.9999 131.873 11.9018 131.636C11.8037 131.399 11.7533 131.145 11.7534 130.888C11.7533 130.632 11.8037 130.378 11.9018 130.141C11.9999 129.904 12.1437 129.689 12.3251 129.507C12.5064 129.326 12.7217 129.182 12.9587 129.084C13.1957 128.986 13.4496 128.936 13.7061 128.936H17.6113C17.8678 128.936 18.1217 128.986 18.3587 129.084C18.5956 129.182 18.811 129.326 18.9923 129.507C19.1737 129.689 19.3175 129.904 19.4156 130.141C19.5137 130.378 19.5641 130.632 19.564 130.888C19.5641 131.145 19.5137 131.399 19.4156 131.636C19.3175 131.873 19.1737 132.088 18.9923 132.269C18.811 132.451 18.5957 132.594 18.3587 132.692C18.1218 132.791 17.8678 132.841 17.6113 132.841ZM17.6113 144.556H13.7061C12.627 144.556 11.7534 143.683 11.7534 142.604C11.7534 141.524 12.627 140.651 13.7061 140.651H17.6113C18.6904 140.651 19.564 141.524 19.564 142.604C19.564 143.683 18.6904 144.556 17.6113 144.556ZM48.8516 39.1191H33.2314C32.1523 39.1191 31.2788 38.2461 31.2788 37.1665C31.2788 36.0869 32.1519 35.2139 33.2314 35.2139H48.8516C49.9307 35.2139 50.8042 36.0869 50.8042 37.1665C50.8042 38.2461 49.9307 39.1191 48.8516 39.1191ZM111.332 50.8345H64.4717C63.3926 50.8345 62.519 49.9609 62.519 48.8818C62.519 47.8027 63.3921 46.9292 64.4717 46.9292H111.332C112.412 46.9292 113.285 47.8027 113.285 48.8818C113.285 49.9609 112.412 50.8345 111.332 50.8345ZM56.6616 50.8345H37.1362C36.0571 50.8345 35.1836 49.9609 35.1836 48.8818C35.1836 47.8027 36.0571 46.9292 37.1362 46.9292H56.6616C57.7407 46.9292 58.6143 47.8027 58.6143 48.8818C58.6143 49.9609 57.7407 50.8345 56.6616 50.8345ZM111.332 62.5498H107.427C106.348 62.5498 105.475 61.6768 105.475 60.5972C105.475 59.5176 106.348 58.6445 107.427 58.6445H111.332C112.412 58.6445 113.285 59.5176 113.285 60.5972C113.285 61.6768 112.412 62.5498 111.332 62.5498ZM99.6172 62.5498H41.0415C39.9624 62.5498 39.0889 61.6768 39.0889 60.5972C39.0889 59.5176 39.9619 58.6445 41.0415 58.6445H99.6172C100.696 58.6445 101.57 59.5176 101.57 60.5972C101.57 61.6768 100.696 62.5498 99.6172 62.5498ZM52.7563 85.98H41.0415C39.9624 85.98 39.0889 85.1069 39.0889 84.0273C39.0889 82.9478 39.9619 82.0747 41.0415 82.0747H52.7568C53.8359 82.0747 54.7095 82.9478 54.7095 84.0273C54.7095 85.1069 53.8354 85.98 52.7563 85.98ZM111.332 85.98H60.5669C59.4878 85.98 58.6143 85.1069 58.6143 84.0273C58.6143 82.9478 59.4878 82.0747 60.5669 82.0747H111.333C112.412 82.0747 113.285 82.9478 113.285 84.0273C113.285 85.1069 112.412 85.98 111.332 85.98ZM111.332 74.2651H44.9463C43.8672 74.2651 42.9937 73.3916 42.9937 72.3125C42.9937 71.2334 43.8672 70.3599 44.9463 70.3599H111.332C112.412 70.3599 113.285 71.2334 113.285 72.3125C113.285 73.3916 112.412 74.2651 111.332 74.2651ZM111.332 97.6953H95.7119C95.4555 97.6954 95.2015 97.645 94.9645 97.5469C94.7276 97.4489 94.5123 97.305 94.3309 97.1237C94.1496 96.9423 94.0057 96.727 93.9077 96.4901C93.8096 96.2531 93.7591 95.9991 93.7593 95.7427C93.7591 95.4862 93.8096 95.2322 93.9077 94.9953C94.0057 94.7583 94.1496 94.543 94.3309 94.3617C94.5123 94.1803 94.7276 94.0365 94.9645 93.9384C95.2015 93.8403 95.4555 93.7899 95.7119 93.79H111.332C111.588 93.7899 111.842 93.8403 112.079 93.9384C112.316 94.0365 112.532 94.1803 112.713 94.3617C112.894 94.543 113.038 94.7583 113.136 94.9953C113.234 95.2322 113.285 95.4862 113.285 95.7427C113.285 95.9991 113.234 96.2531 113.136 96.4901C113.038 96.727 112.894 96.9423 112.713 97.1237C112.532 97.305 112.316 97.4489 112.079 97.5469C111.842 97.645 111.588 97.6954 111.332 97.6953ZM99.6172 109.41H37.1362C36.8798 109.41 36.6258 109.36 36.3888 109.262C36.1519 109.164 35.9366 109.02 35.7552 108.839C35.5739 108.657 35.4301 108.442 35.332 108.205C35.2339 107.968 35.1835 107.714 35.1836 107.458C35.1835 107.201 35.2339 106.947 35.332 106.71C35.4301 106.473 35.5739 106.258 35.7552 106.077C35.9366 105.895 36.1519 105.751 36.3888 105.653C36.6258 105.555 36.8798 105.505 37.1362 105.505H99.6172C99.8736 105.505 100.128 105.555 100.365 105.653C100.602 105.751 100.817 105.895 100.998 106.077C101.18 106.258 101.323 106.473 101.421 106.71C101.52 106.947 101.57 107.201 101.57 107.458C101.57 107.714 101.52 107.968 101.421 108.205C101.323 108.442 101.18 108.657 100.998 108.839C100.817 109.02 100.602 109.164 100.365 109.262C100.128 109.36 99.8736 109.41 99.6172 109.41ZM68.377 132.841H37.1367C36.8803 132.841 36.6263 132.791 36.3893 132.692C36.1524 132.594 35.9371 132.451 35.7557 132.269C35.5744 132.088 35.4305 131.873 35.3325 131.636C35.2344 131.399 35.184 131.145 35.1841 130.888C35.184 130.632 35.2344 130.378 35.3325 130.141C35.4306 129.904 35.5744 129.689 35.7557 129.507C35.9371 129.326 36.1524 129.182 36.3894 129.084C36.6263 128.986 36.8803 128.936 37.1367 128.936H68.377C68.6334 128.936 68.8874 128.986 69.1243 129.084C69.3613 129.182 69.5766 129.326 69.7579 129.507C69.9393 129.689 70.0831 129.904 70.1812 130.141C70.2793 130.378 70.3297 130.632 70.3296 130.888C70.3297 131.145 70.2793 131.399 70.1812 131.636C70.0831 131.873 69.9393 132.088 69.758 132.269C69.5766 132.451 69.3613 132.594 69.1243 132.692C68.8874 132.791 68.6334 132.841 68.377 132.841ZM111.332 121.125H91.8071C91.5507 121.126 91.2967 121.075 91.0597 120.977C90.8228 120.879 90.6075 120.735 90.4261 120.554C90.2448 120.373 90.101 120.157 90.0029 119.92C89.9048 119.683 89.8544 119.429 89.8545 119.173C89.8544 118.916 89.9048 118.662 90.0029 118.425C90.101 118.188 90.2448 117.973 90.4261 117.792C90.6075 117.61 90.8228 117.467 91.0597 117.369C91.2967 117.271 91.5507 117.22 91.8071 117.22H111.332C111.588 117.22 111.842 117.271 112.079 117.369C112.316 117.467 112.532 117.61 112.713 117.792C112.894 117.973 113.038 118.188 113.136 118.425C113.234 118.662 113.285 118.916 113.285 119.173C113.285 119.429 113.234 119.683 113.136 119.92C113.038 120.157 112.894 120.373 112.713 120.554C112.532 120.735 112.316 120.879 112.079 120.977C111.842 121.075 111.588 121.126 111.332 121.125ZM83.9971 121.125H41.0415C40.785 121.126 40.5311 121.075 40.2941 120.977C40.0571 120.879 39.8418 120.735 39.6605 120.554C39.4792 120.373 39.3353 120.157 39.2372 119.92C39.1392 119.683 39.0887 119.429 39.0889 119.173C39.0887 118.916 39.1392 118.662 39.2372 118.425C39.3353 118.188 39.4792 117.973 39.6605 117.792C39.8418 117.61 40.0571 117.467 40.2941 117.369C40.5311 117.271 40.785 117.22 41.0415 117.22H83.9971C84.2535 117.22 84.5075 117.271 84.7445 117.369C84.9814 117.467 85.1967 117.61 85.3781 117.792C85.5594 117.973 85.7032 118.188 85.8013 118.425C85.8994 118.662 85.9498 118.916 85.9497 119.173C85.9498 119.429 85.8994 119.683 85.8013 119.92C85.7032 120.157 85.5594 120.373 85.3781 120.554C85.1967 120.735 84.9814 120.879 84.7445 120.977C84.5075 121.075 84.2535 121.126 83.9971 121.125ZM48.8516 144.556H33.2314C32.1523 144.556 31.2788 143.683 31.2788 142.604C31.2788 141.524 32.1519 140.651 33.2314 140.651H48.8516C49.9307 140.651 50.8042 141.524 50.8042 142.604C50.8042 143.683 49.9307 144.556 48.8516 144.556ZM111.332 109.41H107.427C107.171 109.41 106.917 109.36 106.68 109.262C106.443 109.164 106.228 109.02 106.046 108.839C105.865 108.657 105.721 108.442 105.623 108.205C105.525 107.968 105.474 107.714 105.475 107.458C105.474 107.201 105.525 106.947 105.623 106.71C105.721 106.473 105.865 106.258 106.046 106.077C106.228 105.895 106.443 105.751 106.68 105.653C106.917 105.555 107.171 105.505 107.427 105.505H111.332C111.588 105.505 111.842 105.555 112.079 105.653C112.316 105.751 112.532 105.895 112.713 106.077C112.894 106.258 113.038 106.473 113.136 106.71C113.234 106.947 113.285 107.201 113.285 107.458C113.285 107.714 113.234 107.968 113.136 108.205C113.038 108.442 112.895 108.657 112.713 108.839C112.532 109.02 112.316 109.164 112.079 109.262C111.843 109.36 111.589 109.41 111.332 109.41ZM87.9019 97.6953H41.0415C40.785 97.6954 40.5311 97.645 40.2941 97.5469C40.0571 97.4489 39.8418 97.305 39.6605 97.1237C39.4792 96.9423 39.3353 96.727 39.2372 96.4901C39.1392 96.2531 39.0887 95.9991 39.0889 95.7427C39.0887 95.4862 39.1392 95.2322 39.2372 94.9953C39.3353 94.7583 39.4792 94.543 39.6605 94.3617C39.8418 94.1803 40.0571 94.0365 40.2941 93.9384C40.5311 93.8403 40.785 93.7899 41.0415 93.79H87.9023C88.1588 93.7899 88.4128 93.8403 88.6497 93.9384C88.8867 94.0365 89.102 94.1803 89.2834 94.3617C89.4647 94.543 89.6085 94.7583 89.7066 94.9953C89.8047 95.2322 89.8551 95.4862 89.855 95.7427C89.855 95.9992 89.8046 96.2531 89.7064 96.4901C89.6083 96.7271 89.4644 96.9424 89.283 97.1237C89.1017 97.3051 88.8863 97.4489 88.6493 97.547C88.4123 97.645 88.1583 97.6954 87.9019 97.6953Z" fill="white"/>
<path d="M125 156.271C124.744 156.271 124.49 156.221 124.253 156.123C124.016 156.025 123.8 155.881 123.619 155.699C123.438 155.518 123.294 155.303 123.196 155.066C123.098 154.829 123.047 154.575 123.047 154.318V25.4517C123.047 25.1952 123.098 24.9412 123.196 24.7043C123.294 24.4673 123.438 24.252 123.619 24.0707C123.8 23.8893 124.016 23.7455 124.253 23.6474C124.49 23.5493 124.744 23.4989 125 23.499C125.256 23.4989 125.51 23.5493 125.747 23.6474C125.984 23.7455 126.2 23.8893 126.381 24.0707C126.562 24.252 126.706 24.4673 126.804 24.7043C126.902 24.9413 126.952 25.1952 126.952 25.4517V154.318C126.952 154.575 126.902 154.829 126.804 155.066C126.706 155.303 126.562 155.518 126.381 155.699C126.2 155.881 125.984 156.025 125.747 156.123C125.51 156.221 125.256 156.271 125 156.271Z" fill="white"/>
<path d="M220.673 132.841C220.348 132.841 220.028 132.76 219.743 132.605C219.457 132.449 219.215 132.225 219.038 131.953L195.29 95.4209L171.543 131.953C170.96 132.864 169.744 133.112 168.844 132.528C168.41 132.245 168.106 131.802 167.998 131.295C167.891 130.788 167.989 130.259 168.271 129.825L193.654 90.7739C194.372 89.6646 196.209 89.6646 196.926 90.7739L222.309 129.825C222.591 130.259 222.689 130.788 222.582 131.295C222.475 131.802 222.171 132.245 221.737 132.528C221.41 132.741 221.04 132.841 220.673 132.841Z" fill="white"/>
<path d="M154.288 132.841C153.935 132.841 153.588 132.745 153.285 132.563C152.981 132.382 152.733 132.121 152.566 131.81C152.4 131.498 152.32 131.147 152.337 130.794C152.355 130.441 152.467 130.099 152.663 129.805L168.283 106.398C168.462 106.131 168.703 105.912 168.987 105.76C169.27 105.608 169.586 105.529 169.908 105.529C170.229 105.529 170.545 105.608 170.829 105.76C171.112 105.912 171.354 106.131 171.532 106.398L179.229 117.934C179.516 118.364 179.62 118.892 179.518 119.399C179.417 119.907 179.118 120.354 178.687 120.641C177.791 121.232 176.579 121 175.979 120.1L169.908 110.999L155.912 131.971C155.734 132.239 155.493 132.458 155.209 132.61C154.926 132.762 154.609 132.841 154.288 132.841ZM154.288 105.505C148.903 105.505 144.525 101.125 144.525 95.7427C144.525 90.3599 148.903 85.98 154.288 85.98C159.672 85.98 164.051 90.3599 164.051 95.7427C164.051 101.125 159.673 105.505 154.288 105.505ZM154.288 89.8853C151.058 89.8853 148.431 92.5127 148.431 95.7427C148.431 98.9727 151.058 101.6 154.288 101.6C157.518 101.6 160.146 98.9727 160.146 95.7427C160.146 92.5127 157.519 89.8853 154.288 89.8853Z" fill="white"/>
<path d="M224.579 132.841H138.668C137.588 132.841 136.715 131.968 136.715 130.888V80.1226C136.715 79.8661 136.765 79.612 136.863 79.3751C136.961 79.1381 137.105 78.9227 137.287 78.7414C137.468 78.56 137.683 78.4162 137.92 78.3182C138.157 78.2201 138.411 78.1697 138.668 78.1699H224.579C224.835 78.1698 225.089 78.2202 225.326 78.3183C225.563 78.4164 225.778 78.5602 225.959 78.7416C226.141 78.9229 226.285 79.1382 226.383 79.3752C226.481 79.6122 226.531 79.8661 226.531 80.1226V130.888C226.531 131.145 226.481 131.399 226.383 131.636C226.285 131.873 226.141 132.088 225.96 132.269C225.779 132.451 225.563 132.594 225.326 132.693C225.089 132.791 224.836 132.841 224.579 132.841ZM140.62 128.936H222.626V82.0752H140.62V128.936Z" fill="white"/>
<path d="M224.579 39.1191H138.668C137.588 39.1191 136.715 38.2461 136.715 37.1665C136.715 36.0869 137.588 35.2139 138.668 35.2139H224.579C225.658 35.2139 226.531 36.0869 226.531 37.1665C226.531 38.2461 225.658 39.1191 224.579 39.1191Z" fill="white"/>
<path d="M224.579 70.3599C224.323 70.3601 224.069 70.3097 223.832 70.2116C223.595 70.1135 223.379 69.9697 223.198 69.7884C223.017 69.607 222.873 69.3916 222.775 69.1547C222.677 68.9177 222.627 68.6637 222.627 68.4072V37.167C222.627 36.0879 223.5 35.2144 224.579 35.2144C225.659 35.2144 226.531 36.0874 226.531 37.167V68.4072C226.531 68.6637 226.481 68.9176 226.383 69.1546C226.285 69.3915 226.141 69.6069 225.96 69.7882C225.779 69.9696 225.563 70.1134 225.326 70.2115C225.089 70.3096 224.836 70.36 224.579 70.3599Z" fill="white"/>
<path d="M224.579 70.3599H138.668C137.588 70.3599 136.715 69.4868 136.715 68.4072C136.715 67.3276 137.588 66.4546 138.668 66.4546H224.579C225.658 66.4546 226.531 67.3276 226.531 68.4072C226.531 69.4868 225.658 70.3599 224.579 70.3599Z" fill="white"/>
<path d="M212.864 54.7393H138.668C137.588 54.7393 136.715 53.8662 136.715 52.7866C136.715 51.707 137.588 50.834 138.668 50.834H212.864C213.942 50.834 214.816 51.707 214.816 52.7866C214.816 53.8662 213.942 54.7393 212.864 54.7393Z" fill="white"/>
<path d="M224.579 144.556H138.668C137.588 144.556 136.715 143.683 136.715 142.604C136.715 141.524 137.588 140.651 138.668 140.651H224.579C225.658 140.651 226.531 141.524 226.531 142.604C226.531 143.683 225.658 144.556 224.579 144.556Z" fill="white"/>
</svg>
