<svg width="139" height="86" viewBox="0 0 139 86" fill="none" xmlns="http://www.w3.org/2000/svg">
<path id="Vector" d="M25.9038 11.9211C25.9038 5.32201 32.1797 0 40.0745 0C47.9189 0 54.2453 5.32201 54.2453 11.9211C54.1949 18.563 47.8686 23.8423 40.0745 23.8423C32.2301 23.8423 25.9038 18.5202 25.9038 11.9211ZM104.069 63.0504H78.3568V43.7211C78.3568 34.3045 68.5747 26.6929 57.5682 26.6929H23.1028C11.0191 26.6929 0.667427 35.5015 0.672897 44.1813V79.6184C0.658674 83.5455 3.95586 85.5962 7.23773 85.6013C10.5278 85.6063 13.8026 83.5556 13.8026 79.6184V45.1017H18.1791V85.6013H60.8506V45.1017H65.2271L65.2714 68.2831C65.2425 72.3004 68.1939 74.011 71.2449 74.0957H104.069C113.021 74.0957 113.021 63.0504 104.069 63.0504ZM137.555 42.3851H137.714H138.534C138.534 47.0623 134.045 50.8389 128.485 50.8389C122.925 50.8389 118.436 47.0434 118.436 42.3851H119.393H119.553L126.48 23.1197H113.332V53.1004H126.343V57.3943H124.679H111.805H98.9299H97.2663V53.1004H110.277V23.1202H97.1295L104.057 42.3855H104.216H105.173C105.173 47.0628 100.684 50.8393 95.1239 50.8393C89.5641 50.8393 85.0748 47.0439 85.0748 42.3855H85.8949H86.0546L93.3919 21.855H110.14V19.2865C110.14 18.5773 110.983 17.887 111.804 17.887C112.647 17.887 113.467 18.5962 113.467 19.2865V21.8361H130.215L137.555 42.3851ZM95.0572 23.695L88.4721 42.3851H101.78L95.0572 23.695ZM135.139 42.3851L128.554 23.695L121.832 42.3851H135.139Z" fill="#FFC700" fill-opacity="0.8"/>
</svg>
