<svg width="22" height="22" viewBox="0 0 22 22" fill="none" xmlns="http://www.w3.org/2000/svg">
<g id="google-178-svgrepo-com 1" clip-path="url(#clip0_173_108)">
<g id="Page-1">
<g id="Dribbble-Light-Preview">
<g id="icons">
<path id="google-[#178]" fill-rule="evenodd" clip-rule="evenodd" d="M21.8037 8.80431H11.2324C11.2324 9.90369 11.2324 12.1022 11.2257 13.2016H17.3514C17.1167 14.301 16.2844 15.8404 15.1085 16.6155C15.1085 16.6155 15.1062 16.622 15.104 16.6209C13.5405 17.6532 11.4773 17.8874 9.94528 17.5796C7.54394 17.1025 5.64353 15.3609 4.87191 13.149C4.8764 13.1457 4.87979 13.1152 4.88316 13.113C4.40019 11.741 4.40019 9.90369 4.88316 8.80431H4.88203C5.50427 6.78365 7.46194 4.94007 9.86664 4.43546C11.8007 4.02539 13.9831 4.4693 15.5881 5.97105C15.8015 5.76218 18.542 3.08639 18.7475 2.86871C13.2642 -2.09719 4.48443 -0.350329 1.19916 6.06236H1.19803C1.19803 6.06236 1.19917 6.06263 1.19243 6.07472C-0.432799 9.22445 -0.365411 12.9359 1.20366 15.935C1.19916 15.9383 1.1958 15.9403 1.19243 15.9436C2.61436 18.703 5.20214 20.8193 8.32005 21.6251C11.6323 22.4936 15.8475 21.9 18.6712 19.3462L18.6745 19.3494C21.0669 17.1946 22.5562 13.524 21.8037 8.80431Z" fill="white"/>
</g>
</g>
</g>
</g>
<defs>
<clipPath id="clip0_173_108">
<rect width="22" height="22" fill="white"/>
</clipPath>
</defs>
</svg>
