<svg width="216" height="34" viewBox="0 0 216 34" fill="none" xmlns="http://www.w3.org/2000/svg">
<path d="M0.909063 21.8C0.909063 19.5067 1.33573 17.4933 2.18906 15.76C3.06906 14.0267 4.25573 12.6933 5.74906 11.76C7.2424 10.8267 8.90906 10.36 10.7491 10.36C12.2157 10.36 13.5491 10.6667 14.7491 11.28C15.9757 11.8933 16.9357 12.72 17.6291 13.76V3.4H24.4691V33H17.6291V29.8C16.9891 30.8667 16.0691 31.72 14.8691 32.36C13.6957 33 12.3224 33.32 10.7491 33.32C8.90906 33.32 7.2424 32.8533 5.74906 31.92C4.25573 30.96 3.06906 29.6133 2.18906 27.88C1.33573 26.12 0.909063 24.0933 0.909063 21.8ZM17.6291 21.84C17.6291 20.1333 17.1491 18.7867 16.1891 17.8C15.2557 16.8133 14.1091 16.32 12.7491 16.32C11.3891 16.32 10.2291 16.8133 9.26906 17.8C8.33573 18.76 7.86906 20.0933 7.86906 21.8C7.86906 23.5067 8.33573 24.8667 9.26906 25.88C10.2291 26.8667 11.3891 27.36 12.7491 27.36C14.1091 27.36 15.2557 26.8667 16.1891 25.88C17.1491 24.8933 17.6291 23.5467 17.6291 21.84ZM35.8175 27.36H45.4975V33H28.1775V27.56L37.4575 16.32H28.2575V10.68H45.2975V16.12L35.8175 27.36ZM81.0613 4.92V33H74.2213V16.16L67.9413 33H62.4213L56.1013 16.12V33H49.2613V4.92H57.3412L65.2213 24.36L73.0213 4.92H81.0613ZM96.14 33.32C93.9533 33.32 91.98 32.8533 90.22 31.92C88.4867 30.9867 87.1133 29.6533 86.1 27.92C85.1133 26.1867 84.62 24.16 84.62 21.84C84.62 19.5467 85.1267 17.5333 86.14 15.8C87.1533 14.04 88.54 12.6933 90.3 11.76C92.06 10.8267 94.0333 10.36 96.22 10.36C98.4067 10.36 100.38 10.8267 102.14 11.76C103.9 12.6933 105.287 14.04 106.3 15.8C107.313 17.5333 107.82 19.5467 107.82 21.84C107.82 24.1333 107.3 26.16 106.26 27.92C105.247 29.6533 103.847 30.9867 102.06 31.92C100.3 32.8533 98.3267 33.32 96.14 33.32ZM96.14 27.4C97.4467 27.4 98.5533 26.92 99.46 25.96C100.393 25 100.86 23.6267 100.86 21.84C100.86 20.0533 100.407 18.68 99.5 17.72C98.62 16.76 97.5267 16.28 96.22 16.28C94.8867 16.28 93.78 16.76 92.9 17.72C92.02 18.6533 91.58 20.0267 91.58 21.84C91.58 23.6267 92.0067 25 92.86 25.96C93.74 26.92 94.8333 27.4 96.14 27.4ZM125.169 10.44C127.729 10.44 129.782 11.2933 131.329 13C132.875 14.68 133.649 17 133.649 19.96V33H126.849V20.88C126.849 19.3867 126.462 18.2267 125.689 17.4C124.915 16.5733 123.875 16.16 122.569 16.16C121.262 16.16 120.222 16.5733 119.449 17.4C118.675 18.2267 118.289 19.3867 118.289 20.88V33H111.449V3.4H118.289V13.68C118.982 12.6933 119.929 11.9067 121.129 11.32C122.329 10.7333 123.675 10.44 125.169 10.44ZM137.042 21.8C137.042 19.5067 137.469 17.4933 138.322 15.76C139.202 14.0267 140.389 12.6933 141.882 11.76C143.375 10.8267 145.042 10.36 146.882 10.36C148.455 10.36 149.829 10.68 151.002 11.32C152.202 11.96 153.122 12.8 153.762 13.84V10.68H160.602V33H153.762V29.84C153.095 30.88 152.162 31.72 150.962 32.36C149.789 33 148.415 33.32 146.842 33.32C145.029 33.32 143.375 32.8533 141.882 31.92C140.389 30.96 139.202 29.6133 138.322 27.88C137.469 26.12 137.042 24.0933 137.042 21.8ZM153.762 21.84C153.762 20.1333 153.282 18.7867 152.322 17.8C151.389 16.8133 150.242 16.32 148.882 16.32C147.522 16.32 146.362 16.8133 145.402 17.8C144.469 18.76 144.002 20.0933 144.002 21.8C144.002 23.5067 144.469 24.8667 145.402 25.88C146.362 26.8667 147.522 27.36 148.882 27.36C150.242 27.36 151.389 26.8667 152.322 25.88C153.282 24.8933 153.762 23.5467 153.762 21.84ZM194.03 10.44C196.804 10.44 199.004 11.28 200.63 12.96C202.284 14.64 203.11 16.9733 203.11 19.96V33H196.31V20.88C196.31 19.44 195.924 18.3333 195.15 17.56C194.404 16.76 193.364 16.36 192.03 16.36C190.697 16.36 189.644 16.76 188.87 17.56C188.124 18.3333 187.75 19.44 187.75 20.88V33H180.95V20.88C180.95 19.44 180.564 18.3333 179.79 17.56C179.044 16.76 178.004 16.36 176.67 16.36C175.337 16.36 174.284 16.76 173.51 17.56C172.764 18.3333 172.39 19.44 172.39 20.88V33H165.55V10.68H172.39V13.48C173.084 12.5467 173.99 11.8133 175.11 11.28C176.23 10.72 177.497 10.44 178.91 10.44C180.59 10.44 182.084 10.8 183.39 11.52C184.724 12.24 185.764 13.2667 186.51 14.6C187.284 13.3733 188.337 12.3733 189.67 11.6C191.004 10.8267 192.457 10.44 194.03 10.44ZM211.334 8.36C210.134 8.36 209.147 8.01333 208.374 7.32C207.627 6.6 207.254 5.72 207.254 4.68C207.254 3.61333 207.627 2.73333 208.374 2.04C209.147 1.32 210.134 0.959998 211.334 0.959998C212.507 0.959998 213.467 1.32 214.214 2.04C214.987 2.73333 215.374 3.61333 215.374 4.68C215.374 5.72 214.987 6.6 214.214 7.32C213.467 8.01333 212.507 8.36 211.334 8.36ZM214.734 10.68V33H207.894V10.68H214.734Z" fill="white"/>
</svg>
