<svg width="289" height="194" viewBox="0 0 289 194" fill="none" xmlns="http://www.w3.org/2000/svg">
<path d="M144.347 0C66.3339 0 3.04631 60.7126 0.226562 138.238C0.226562 142.597 3.98622 146.333 8.37249 146.333C12.1322 146.333 15.2652 143.842 16.5184 140.106C29.0506 95.8948 69.7803 65.3828 116.149 65.3828C137.767 65.3828 158.446 71.9211 175.991 84.375L120.849 137.304C119.282 137.304 117.716 136.993 116.149 136.993C100.484 136.993 87.952 149.446 87.952 165.014C87.952 180.581 100.484 193.035 116.149 193.035C131.815 193.035 144.347 180.581 144.347 165.014C144.347 163.457 144.034 161.9 144.034 160.344L187.896 94.0267C201.055 106.792 210.768 122.671 215.78 140.106C216.72 143.842 220.167 146.333 223.926 146.333H280.321C282.514 146.333 284.707 145.399 286.274 143.842C287.841 142.285 288.78 140.106 288.467 137.927C285.334 60.7126 222.046 0 144.347 0ZM200.428 18.0581L161.265 68.8076C148.107 62.892 134.008 59.4672 119.282 59.1559V8.40637C127.428 6.84963 135.574 6.22694 144.347 6.22694C164.398 6.22694 183.197 10.5858 200.428 18.0581ZM75.1064 67.2509L60.0678 34.5595C75.4198 22.7283 93.2781 14.322 113.016 9.9631V59.1559C99.8575 59.4672 87.012 62.2694 75.1064 67.2509ZM10.5656 138.549C10.2523 139.483 9.31241 140.106 8.37249 140.106C7.43258 140.106 6.49266 139.172 6.49266 138.238C7.11927 119.246 11.8188 101.188 19.3382 84.9977L34.6901 95.2721C23.7244 107.415 15.2652 122.048 10.5656 138.549ZM39.0764 90.6019L22.1579 79.3934C30.3038 63.8261 41.5828 49.8155 55.0549 38.607L69.1536 69.7417C58.188 74.7232 47.8489 81.8842 39.0764 90.6019ZM116.149 186.808C103.931 186.808 94.218 177.156 94.218 165.014C94.218 152.871 103.931 143.22 116.149 143.22C128.368 143.22 138.081 152.871 138.081 165.014C138.081 177.156 128.368 186.808 116.149 186.808ZM127.742 139.483L189.149 80.6388L184.763 87.1771C184.45 87.4884 184.45 87.7998 184.45 87.7998L141.527 152.871C138.707 146.956 133.694 141.974 127.742 139.483ZM191.029 88.7338L209.514 60.7126C210.454 59.4672 210.141 57.5992 208.888 56.6651C207.634 55.7311 205.755 55.7311 204.815 56.6651L180.69 79.7048C176.304 76.5913 171.918 73.7892 167.218 71.2984L206.381 20.5489C228.626 31.7574 247.424 48.5701 260.896 69.119L199.802 96.5175L199.489 96.8288C196.669 94.0267 193.849 91.536 191.029 88.7338ZM281.574 139.483C281.261 139.795 280.634 140.106 280.008 140.106H223.613C222.673 140.106 222.046 139.483 221.733 138.549C217.973 125.161 211.707 113.019 203.248 102.122L264.029 74.7232C274.682 93.404 281.261 114.887 282.201 137.927C281.888 138.861 281.574 139.172 281.574 139.483Z" fill="white"/>
</svg>
