<svg width="126" height="126" viewBox="0 0 126 126" fill="none" xmlns="http://www.w3.org/2000/svg">
<g id="appointment-soon-symbolic-svgrepo-com" clip-path="url(#clip0_170_81)">
<path id="Vector" d="M49.6329 8.89404L42.9594 10.5617V15.5646H49.6329V8.89404ZM49.6329 15.5646V22.2352H42.9594V15.5646C34.5642 15.6647 28.418 15.3645 23.3995 18.1328C20.8836 19.5203 18.8883 21.8683 17.7938 24.7901C16.6927 27.7184 16.3057 31.1938 16.3057 35.5764V88.9411C16.3057 93.3303 16.6927 96.8057 17.7938 99.7274C18.8883 102.662 20.8836 104.991 23.3995 106.378C28.418 109.146 34.5642 108.859 42.9594 108.953H63.0065V102.282H42.9594C34.5509 102.189 29.0319 101.882 26.5894 100.541C25.3682 99.8609 24.6541 99.1204 24.0068 97.3861C23.3528 95.6517 22.9391 92.8968 22.9391 88.9411V55.5882C22.9391 51.6392 23.3595 48.8842 24.0068 47.1499C24.6608 45.4155 25.3682 44.6684 26.5894 43.9947C29.0386 42.6472 34.5642 42.347 42.9995 42.247H83.0001C91.4087 42.347 96.9276 42.6472 99.3701 43.9947C100.598 44.6684 101.305 45.4155 101.953 47.1499C102.607 48.8842 103.02 55.5882 103.02 55.5882V68.9293H109.694V35.5764C109.694 31.1938 109.293 27.7184 108.192 24.7901C107.184 21.9766 105.203 19.6157 102.607 18.1328C97.5816 15.3645 91.4353 15.6647 83.0401 15.5646V22.2352H76.3667V15.5646H49.6329ZM76.3267 15.5646H83.0001V8.89404L76.3267 10.5617V15.5646Z" fill="#FFC700" fill-opacity="0.8"/>
<path id="Vector_2" fill-rule="evenodd" clip-rule="evenodd" d="M98.2799 76.616C97.7006 76.6462 97.1379 76.8205 96.6429 77.123C96.1479 77.4256 95.7361 77.8467 95.4449 78.3485L71.3395 120.85C71.0402 121.373 70.8836 121.966 70.8853 122.568C70.8869 123.171 71.0469 123.763 71.3491 124.284C71.6513 124.806 72.0852 125.239 72.6073 125.54C73.1294 125.841 73.7214 126 74.3241 126H122.559C123.161 126 123.753 125.841 124.275 125.54C124.798 125.239 125.231 124.806 125.534 124.284C125.836 123.763 125.996 123.171 125.997 122.568C125.999 121.966 125.842 121.373 125.543 120.85L101.454 78.3485C101.135 77.7979 100.671 77.3453 100.113 77.0399C99.5546 76.7344 98.9234 76.5878 98.2878 76.616H98.2799ZM94.4999 86.6251H102.375V87.9481C102.375 90.6965 102.249 93.2086 102.005 95.4845C101.769 97.7682 101.461 100.06 101.099 102.375H95.8544C95.4476 100.09 95.1193 97.7919 94.87 95.4845C94.6151 92.9805 94.4915 90.4649 94.4999 87.9481V86.6251ZM98.4374 110.25C99.4817 110.25 100.483 110.665 101.222 111.403C101.96 112.142 102.375 113.143 102.375 114.188C102.375 115.232 101.96 116.233 101.222 116.972C100.483 117.71 99.4817 118.125 98.4374 118.125C97.3931 118.125 96.3916 117.71 95.6532 116.972C94.9147 116.233 94.4999 115.232 94.4999 114.188C94.4999 113.143 94.9147 112.142 95.6532 111.403C96.3916 110.665 97.3931 110.25 98.4374 110.25Z" fill="#FDC92B" fill-opacity="0.8"/>
</g>
<defs>
<clipPath id="clip0_170_81">
<rect width="126" height="126" fill="white"/>
</clipPath>
</defs>
</svg>
