<svg width="220" height="247" viewBox="0 0 220 247" fill="none" xmlns="http://www.w3.org/2000/svg">
<path d="M220 110C220 49.3659 170.634 0 110 0C49.3659 0 0 49.3659 0 110C0 146.22 17.7073 180.024 47.4878 200.415C59.8293 224.024 82.0976 241.463 109.463 246.829C109.732 246.829 109.732 246.829 110 246.829C110.268 246.829 110.268 246.829 110.537 246.829C137.902 241.463 160.439 224.024 172.512 200.683C202.293 180.024 220 146.22 220 110ZM37.561 137.634C26.561 130.39 20.122 121.805 19.0488 112.683H37.561V137.634ZM39.7073 91.2195C38.3659 91.4878 37.561 92.561 37.561 93.9024V107.317H19.0488C20.9268 92.2927 37.561 78.6098 63.3171 70.8293C61.9756 76.4634 60.9024 82.0976 60.3659 88L39.7073 91.2195ZM112.683 19.0488C127.707 20.9268 141.39 37.561 149.171 63.3171C137.634 60.6341 125.561 59.2927 112.683 59.0244V19.0488ZM107.317 59.0244C94.7073 59.2927 82.3659 60.6341 70.8293 63.3171C78.6098 37.561 92.2927 20.9268 107.317 19.0488V59.0244ZM69.2195 69.2195C81.0244 66.2683 94.1707 64.6585 107.317 64.3902V80.7561L66 87.1951C66.8049 81.0244 67.8781 75.1219 69.2195 69.2195ZM112.683 64.6585C125.829 64.9268 138.976 66.5366 150.78 69.4878C152.122 75.1219 153.463 81.2927 154.268 87.4634L112.683 80.7561V64.6585ZM159.634 88C158.829 82.0976 158.024 76.4634 156.683 70.8293C182.707 78.6098 199.341 92.2927 200.951 107.317H182.439V93.9024C182.439 92.561 181.366 91.4878 180.293 91.2195L159.634 88ZM182.439 112.683H200.951C199.878 121.537 193.439 130.39 182.439 137.634V112.683ZM182.439 159.634V143.805C189.415 139.78 195.049 134.951 199.073 129.854C196.122 142.732 190.488 155.073 182.171 165.537C182.439 163.659 182.439 161.78 182.439 159.634ZM155.073 64.9268C149.439 44.8049 140.585 29.5122 129.585 20.9268C164.463 28.439 191.293 55.5366 198.805 90.1463C190.488 79.4146 175.195 70.561 155.073 64.9268ZM64.9268 64.9268C44.8049 70.561 29.5122 79.4146 20.9268 90.4146C28.439 55.5366 55.5366 28.7073 90.1463 21.1951C79.4146 29.5122 70.561 44.8049 64.9268 64.9268ZM37.561 143.805V159.634C37.561 161.78 37.561 163.659 37.8293 165.537C29.7805 155.073 23.878 142.732 21.1951 129.854C24.9512 134.951 30.5854 139.78 37.561 143.805ZM110 241.463C71.0976 233.683 42.9268 199.341 42.9268 159.634V96.3171L110 85.8537L177.073 96.0488V159.634C177.073 199.341 148.902 233.683 110 241.463ZM177.073 190.22C178.951 185.39 180.293 180.561 181.098 175.195C197.195 157.756 206.317 134.951 206.585 111.073C206.585 110.537 206.585 110.268 206.585 109.732C206.585 109.195 206.585 108.659 206.585 108.39C205.78 55.8049 163.927 14.2195 111.341 13.4146C110.805 13.4146 110.537 13.4146 110 13.4146C109.463 13.4146 109.195 13.4146 108.659 13.4146C55.8049 14.2195 14.2195 56.0732 13.4146 108.659C13.4146 109.195 13.4146 109.463 13.4146 110C13.4146 110.537 13.4146 111.073 13.4146 111.341C13.6829 135.22 22.8049 157.756 38.9024 175.463C39.7073 180.561 41.3171 185.659 42.9268 190.488C19.3171 170.634 5.36585 141.122 5.36585 110C5.36585 52.3171 52.3171 5.36585 110 5.36585C167.683 5.36585 214.634 52.3171 214.634 110C214.634 141.122 200.683 170.634 177.073 190.22Z" fill="white"/>
</svg>
